<?xml version="1.0" standalone="no"?>
<!DOCTYPE svg PUBLIC "-//W3C//DTD SVG 1.0//EN" "http://www.w3.org/TR/2001/REC-SVG-20010904/DTD/svg10.dtd">
<svg xmlns="http://www.w3.org/2000/svg" xmlns:xlink="http://www.w3.org/1999/xlink" id="body_1" width="88" height="88">

<g transform="matrix(1 0 0 1 0 0)">
	<g>
        <path d="M23 38.8785C 23 27.347622 32.347622 18 43.8785 18L43.8785 18L43.8786 18C 55.409477 18 64.757095 27.347622 64.757095 38.8785L64.757095 38.8785L64.757095 38.8786C 64.757095 50.409477 55.409477 59.7571 43.8786 59.7571L43.8786 59.7571L43.8785 59.7571C 32.347622 59.7571 23 50.409477 23 38.8786L23 38.8786L23 38.8785z" stroke="none" fill="#E3B873" fill-rule="nonzero" />
        <path d="M19 38.8785C 19 25.138483 30.138483 14 43.8785 14L43.8785 14L43.8786 14C 57.618614 14 68.757095 25.138483 68.757095 38.8785L68.757095 38.8785L68.757095 38.8786C 68.757095 52.618614 57.618614 63.7571 43.8786 63.7571L43.8786 63.7571L43.8785 63.7571C 30.138483 63.7571 19 52.618614 19 38.8786L19 38.8786L19 38.8785z" stroke="#FFFFFF" stroke-width="8" fill="none" />
	</g>
</g>
</svg>